<svg width="82" height="68" viewBox="0 0 82 68" fill="none" xmlns="http://www.w3.org/2000/svg">
<path d="M58.4531 0.15625C59.7344 0.15625 60.375 0.796875 60.375 2.07812C60.375 2.82812 60.0938 3.6875 59.5312 4.65625L27.4688 61.8438C27.125 62.4688 26.8438 62.9844 26.625 63.3906L25.8281 65.0781C25.0156 66.7031 23.9375 67.5156 22.5938 67.5156C21.25 67.5156 20.5781 66.8281 20.5781 65.4531C20.5781 64.6094 20.9844 63.6875 21.7969 62.6875C23.4219 60.75 24.9688 58.5156 26.4375 55.9844L28.8281 51.7188L0.984375 0.671875H28.3125L41.7188 28.9375L53.7188 7.60938C54.5938 5.98438 55.3438 4.34375 55.9688 2.6875C56.5938 1 57.4219 0.15625 58.4531 0.15625Z" fill="#364646"/>
<path d="M59.1918 34V64.6219C59.3973 64.7262 59.6541 64.7783 59.9623 64.7783H60.9795C62.6233 64.7783 64.5753 63.6523 66.8356 61.4002C67.5137 60.7121 68.1507 59.9614 68.7466 59.1481V34H82V67.4057H68.7466V62.5888C65.3973 66.1963 61.4212 68 56.8185 68C49.6062 68 46 64.4238 46 57.2714V34H59.1918Z" fill="#364646"/>
</svg>
